<?xml version="1.0" encoding="utf-8"?>
<!-- Generator: Adobe Illustrator 28.0.0, SVG Export Plug-In . SVG Version: 6.00 Build 0)  -->
<svg version="1.1" id="Lag_1" xmlns="http://www.w3.org/2000/svg" xmlns:xlink="http://www.w3.org/1999/xlink" x="0px" y="0px"
	 viewBox="0 0 32.43 60" style="enable-background:new 0 0 32.43 60;" xml:space="preserve">
<style type="text/css">
	.st0{fill:#05625E;}
	.st1{fill:#B64B26;}
</style>
<g>
	<path class="st0" d="M17.88,23.2c-0.05,0-0.08,0-0.12,0c-0.23-0.03-0.47-0.08-0.7-0.1c-0.09-0.01-0.13-0.05-0.15-0.14
		c-0.05-0.25-0.11-0.49-0.15-0.74c-0.1-0.59-0.32-1.15-0.54-1.71c-0.12-0.31-0.27-0.51-0.6-0.61c-0.31-0.09-0.61-0.26-0.9-0.41
		c-0.11-0.06-0.21-0.15-0.3-0.24c-0.46-0.46-0.93-0.92-1.38-1.4c-0.29-0.31-0.62-0.52-1.01-0.67c-0.75-0.27-1.46-0.62-2.12-1.09
		c-0.34-0.24-0.62-0.52-0.8-0.91c-0.16-0.34-0.33-0.67-0.52-1c-0.08-0.14-0.18-0.28-0.3-0.39c-0.27-0.25-0.54-0.5-0.82-0.74
		c-0.42-0.19-0.79-0.46-1.07-0.87c-0.44-0.66-0.52-1.49-0.58-2.26v0c0-0.01,0-0.02,0-0.03c-0.02-0.21,0-0.42,0.05-0.63
		c0.06-0.54,0.25-1.05,0.6-1.48c0.4-0.82,1.25-1.32,2.18-1.37c0.96-0.06,1.83,0.39,2.53,1c0.48,0.28,0.95,0.59,1.41,0.9
		c0.08,0.11,0.16,0.23,0.24,0.34c0.16,0.23,0.31,0.46,0.42,0.71c0.11,0.24,0.15,0.5,0.2,0.75c0.43,2.15,0.22,4.45,1.44,6.47
		c0.27,0.44,0.49,0.9,0.71,1.36c0.3,0.21,0.54,0.52,0.63,0.87c0.2,0.29,0.34,0.61,0.42,0.96c0.01,0.06-0.01,0.11-0.04,0.15
		c0.15,0.3,0.28,0.6,0.45,0.89c0.27,0.48,0.41,1,0.56,1.52v0C17.71,22.61,17.79,22.9,17.88,23.2z"/>
	<path class="st0" d="M20.12,5.47c-0.09,0.27-0.3,0.49-0.53,0.66c-0.17,0.23-0.32,0.48-0.45,0.72c-0.44,0.81-0.78,1.76-0.7,2.72
		c0.02,0.2,0.05,0.42,0.13,0.61c0.09,0.22,0.24,0.42,0.38,0.63c0.14,0.21,0.29,0.44,0.29,0.68c0,0.34-0.18,0.59-0.37,0.85
		c-0.37,0.49-0.62,1.01-0.64,1.63c-0.02,0.52,0.11,1.06,0.14,1.58c0.04,0.7-0.1,1.34-0.28,2c-0.17,0.64-0.28,1.29-0.08,1.97
		c0.01,0.05,0.04,0.08,0.07,0.11c0.17,0.97,0.35,1.94,0.53,2.91c0.04,0.21,0.14,0.41,0.21,0.62l0,0c0.02,0.06,0.04,0.12,0.08,0.21
		c-0.14-0.02-0.25-0.04-0.37-0.06c-0.16-0.02-0.32-0.04-0.48-0.08c-0.04-0.01-0.11-0.06-0.11-0.1c-0.19-0.94-0.38-1.89-0.55-2.83
		c-0.1-0.18-0.18-0.36-0.23-0.56c-0.25-0.47-0.51-0.94-0.76-1.4c-0.13-0.18-0.24-0.37-0.32-0.57c-0.01,0-0.38-0.7-0.58-1.04
		c-0.29-0.51-0.56-0.99-0.74-1.53c-0.18-0.53-0.29-1.07-0.38-1.6c-0.15-0.96-0.21-1.92-0.35-2.87c0-0.01,0-0.03,0-0.04
		c-0.15-0.86,0.13-1.8-0.41-2.53c-0.22-0.3-0.52-0.47-0.82-0.67c-0.31-0.21-0.44-0.48-0.48-0.86v0c0-0.14,0.01-0.27,0.02-0.41
		c0-0.01,0.01-0.02,0.01-0.02c0.11-0.37,0.23-0.74,0.34-1.11c0.13-0.21,0.26-0.41,0.37-0.63c0.2-0.4,0.31-0.83,0.32-1.29
		c0-0.04,0-0.08,0-0.12c0.01-0.01,0.01-0.03,0.02-0.04c0-0.13,0.02-0.25,0.05-0.36h0c0.16-0.46,0.66-0.8,1.08-0.93
		c0.57-0.18,1.1,0,1.66,0.25C18.03,1.69,20.57,4.12,20.12,5.47z"/>
	<path class="st0" d="M24.71,12.27c0.17-0.41,0.34-0.82,0.52-1.22c0.25-0.37,0.43-0.8,0.49-1.26c0.1-0.69-0.03-1.4-0.35-2.02
		c-0.05-0.1-0.11-0.2-0.17-0.29c-0.02-0.05-0.05-0.09-0.08-0.13c0,0-0.01-0.01-0.01-0.01c-0.03-0.04-0.06-0.09-0.1-0.13
		c-0.11-0.41-0.3-0.73-0.43-0.93c-0.38-0.61-0.73-1.16-1.54-1.36c-0.32-0.08-0.76-0.1-1.17-0.03l-0.13-0.05
		c-0.42-0.16-0.89,0.05-1.05,0.47l-0.15,0.38c-0.57,0.49-0.97,1.16-1.26,1.8c-0.33,0.74-0.65,1.72-0.35,2.57
		c0.16,0.45,0.58,0.79,0.68,1.26c0.14,0.65-0.3,1.07-0.63,1.56c-0.31,0.47-0.4,1.01-0.35,1.58c0.05,0.54,0.14,1.07,0.13,1.61
		c-0.01,0.52-0.15,1.03-0.29,1.53c0.01,0,0.02,0.01,0.03,0.01c-0.26,0.48-0.28,1.08-0.02,1.55c0.1,0.45,0.31,0.87,0.59,1.24
		c-0.03,0.19-0.06,0.39-0.09,0.58c-0.05,0.29-0.12,0.59-0.13,0.88c-0.01,0.48,0.02,0.96,0.03,1.44c0,0.03,0.04,0.09,0.06,0.1
		c0.24,0.04,0.48,0.08,0.75,0.12c-0.02-0.12-0.04-0.21-0.05-0.3l0,0c-0.05-0.33-0.15-0.66-0.07-0.99c0.02-0.08,0.03-0.17,0.04-0.25
		c0.07-0.56,0.13-1.11,0.2-1.67c0.82-0.21,1.47-0.8,1.9-1.52c0.34-0.56,0.53-1.18,0.64-1.82c0.1-0.16,0.21-0.32,0.34-0.46
		c0.26-0.14,0.52-0.3,0.75-0.49c0.65-0.51,1.13-1.28,1.24-2.15c0.05-0.4,0.02-0.82-0.08-1.21c0-0.02,0-0.04,0.01-0.06
		C24.65,12.48,24.67,12.37,24.71,12.27z"/>
</g>
<path class="st1" d="M30.94,31.46c-0.16-1.11-0.24-1.11-1.11-1.74c-0.38-0.25-0.61-0.62-0.78-1.04c-0.16-0.34-0.3-0.71-0.5-1.01
	c-0.12-0.19-0.26-0.34-0.41-0.51c-0.24-0.28-0.55-0.64-0.79-0.9c-0.15-0.17-0.3-0.22-0.49-0.29c-0.3-0.12-0.55-0.22-0.91-0.36
	c-1.99-0.77-5.26-2.14-7.18-2.85c-0.01,0-0.01,0-0.02-0.01c-0.14-0.03-0.28-0.04-0.45-0.03c-0.49,0.03-1,0.12-1.47,0.1
	c-0.01,0-0.01,0-0.02,0c-0.31-0.05-0.52-0.11-0.92-0.2c-0.89-0.21-1.93-0.45-2.85-0.67c-0.72-0.15-1.38-0.39-2.11-0.39
	c-0.82,0-1.72,0.08-2.58,0.15c-0.53,0.05-1.12,0.07-1.64,0.14c-0.64,0.12-1.28,0.29-1.99,0.45c-0.15,0.04-0.3,0.08-0.44,0.14
	c-0.19,0.08-0.33,0.23-0.47,0.38c-0.28,0.31-0.65,0.75-0.91,1.06c-0.09,0.11-0.18,0.23-0.24,0.36l0,0l0,0
	c-0.04,0.12-0.06,0.24-0.06,0.37c0,0.3,0,0.72,0.01,1.08c0,0.3-0.01,0.61,0.13,0.89c0.13,0.26,0.36,0.54,0.53,0.79
	C3.87,28.18,4.4,29,5.04,29.98c0.27,0.42,0.53,0.76,0.88,1.1c0.4,0.42,0.81,0.88,1.23,1.3c0.23,0.23,0.5,0.36,0.79,0.47
	c0.42,0.18,0.88,0.31,1.26,0.55c0.38,0.25,0.79,0.58,1.15,0.84c0.38,0.26,0.51,0.55,0.55,1c0.14,1.18,0.21,1,0.82,1.9
	c0.25,0.4,0.38,0.9,0.67,1.27c0.01,0.01,0.01,0.02,0.02,0.02c0.67,0.6,1.85,1.46,2.71,2.18c0.21,0.17,0.37,0.34,0.3,0.6
	c-0.24,1.02-0.56,2.17-0.8,3.22c-0.11,0.52-0.26,1.02-0.26,1.53c0,0.01,0,0.01,0,0.01c0.02,0.3,0.17,0.51,0.35,0.8
	c0.25,0.4,0.5,0.81,0.75,1.2c0.16,0.26,0.32,0.51,0.44,0.7c0.14,0.22,0.23,0.38,0.28,0.61c0.1,0.44,0.09,0.93,0.24,1.35
	c0.04,0.1,0.09,0.19,0.16,0.28c0,0,0.01,0.01,0.01,0.01c0.82,0.97,1.98,2.21,2.71,3.22c0.46,0.59,0.64,1.36,0.65,2.11
	c0,0.2,0,0.39-0.01,0.55c-0.01,0.18-0.01,0.37,0.16,0.46c0.01,0.01,0.02,0.01,0.03,0.01c0.91,0.29,2.63,0.68,3.42,0.89c0,0,0,0,0,0
	c0.12,0.03,0.23-0.07,0.21-0.19c-0.38-3.32-1.84-10.76-1.96-12.07c-0.01-0.1,0-0.15,0.07-0.28c0,0,0-0.01,0.01-0.01
	c0.62-0.99,1.47-2.17,2.07-3.15c0.15-0.23,0.24-0.46,0.35-0.73c0.57-1.41,1.25-3.27,1.86-4.69c0.01-0.02,0.02-0.03,0.03-0.04
	c0.66-0.78,2.69-2.86,3.99-4.26c0.13-0.14,0.27-0.28,0.4-0.43c0.15-0.16,0.29-0.3,0.34-0.46C30.98,31.76,30.96,31.61,30.94,31.46z"
	/>
</svg>
